<svg width="30" height="30" viewBox="0 0 30 30" fill="none" xmlns="http://www.w3.org/2000/svg">
<path d="M25.6065 4.44155C22.8902 1.76397 19.1445 0.110352 14.9999 0.110352C10.8552 0.110352 7.10947 1.76397 4.39354 4.44155C1.67789 7.11902 0 10.8115 0 14.8969C0 18.9824 1.67789 22.6749 4.39354 25.3525C7.10947 28.0298 10.8552 29.6835 14.9999 29.6835C19.1445 29.6835 22.8902 28.0298 25.6065 25.3525C28.3221 22.6749 30 18.9824 30 14.8969C30 10.8115 28.3221 7.11902 25.6065 4.44155Z" fill="#6AA7E6"/>
<path fill-rule="evenodd" clip-rule="evenodd" d="M16.5226 13.8654C15.418 13.8818 14.3134 13.8818 13.2087 13.8818C12.8933 13.8818 12.5694 13.8654 12.2615 13.8818C12.1956 13.8818 12.0958 13.9554 12.0958 13.9964C12.0876 14.6269 12.0876 15.2574 12.0876 15.9124C12.9927 15.9124 13.8814 15.9124 14.7866 15.9124C14.762 16.0431 14.7372 16.1414 14.6955 16.2314C14.2881 17.4433 13.0173 18.0412 11.6471 17.8202C9.95258 17.5417 8.90657 16.0022 9.21366 14.3321C9.24706 14.0946 9.32985 13.8654 9.413 13.6523C9.97743 12.4407 11.3646 11.7038 12.7354 12.0068C13.2252 12.1132 13.6491 12.3344 14.0056 12.6536C14.5041 12.1624 14.9777 11.6956 15.4926 11.1881C15.4595 11.1634 15.4015 11.1225 15.3683 11.0816C14.1722 10.0909 12.8014 9.72223 11.2649 9.97608C9.04708 10.3282 7.45292 12.0477 7.11243 14.0534C6.95475 14.9051 7.02102 15.8138 7.3618 16.6979C8.20907 18.8189 10.3762 20.1203 12.702 19.8666C13.8398 19.7439 14.8535 19.3429 15.634 18.5158C16.8043 17.2875 17.112 15.8137 16.9214 14.1846C16.8877 13.9146 16.78 13.8654 16.5226 13.8654Z" fill="white"/>
<path fill-rule="evenodd" clip-rule="evenodd" d="M22.9957 14.0005H21.2309V12.2607H19.9348V14.0005H18.1699V15.2781H19.9348V17.0179H21.2309V15.2781H22.9957V14.0005Z" fill="white"/>
</svg>
