<svg width="30" height="30" viewBox="0 0 30 30" fill="none" xmlns="http://www.w3.org/2000/svg">
<path d="M15 29.6835C23.2843 29.6835 30 23.0634 30 14.8969C30 6.73054 23.2843 0.110352 15 0.110352C6.71573 0.110352 0 6.73054 0 14.8969C0 23.0634 6.71573 29.6835 15 29.6835Z" fill="#6AA7E6"/>
<path d="M23.1291 15.0218C23.1291 16.1516 23.1291 17.2876 23.1291 18.4174C23.1291 20.3356 22.1845 21.664 20.4905 22.5269C19.7978 22.8807 19.0485 23.0359 18.2676 23.0359C16.0573 23.0359 13.8406 23.0731 11.6303 23.0235C9.8545 22.9862 8.42503 22.2165 7.46785 20.708C7.07112 20.0748 6.87591 19.3796 6.86961 18.6409C6.86961 16.2509 6.85702 13.8548 6.86961 11.4648C6.88221 9.82602 7.69455 8.61553 9.07364 7.75888C9.89228 7.25606 10.7991 7.02637 11.7626 7.02017C13.9162 7.02017 16.0636 7.00775 18.2235 7.02017C19.886 7.03258 21.2651 7.67197 22.2852 8.98799C22.8457 9.71428 23.1228 10.5585 23.1228 11.4773C23.1291 12.6505 23.1291 13.8362 23.1291 15.0218ZM21.92 15.0342C21.92 13.8486 21.92 12.6505 21.92 11.4648C21.92 10.8192 21.7248 10.2295 21.3406 9.72049C20.5913 8.72106 19.5522 8.23066 18.3117 8.21824C16.1265 8.19341 13.9414 8.21203 11.7563 8.21203C11.0762 8.21203 10.4338 8.36722 9.8482 8.70244C8.7147 9.34803 8.08498 10.2916 8.09127 11.6076C8.09757 13.9231 8.09127 16.2509 8.09127 18.5726C8.09127 19.2244 8.28649 19.8203 8.67692 20.3356C9.42629 21.335 10.4653 21.8192 11.7059 21.8316C13.9036 21.8564 16.1013 21.8378 18.2928 21.8378C18.7903 21.8378 19.2752 21.7323 19.7411 21.546C20.9754 21.0556 21.9641 19.9196 21.9263 18.405C21.8948 17.2814 21.92 16.1578 21.92 15.0342Z" fill="white"/>
<path d="M15.0004 18.4423C12.8782 18.4361 11.1843 16.7662 11.1906 14.6867C11.1969 12.6568 12.9223 11.0055 15.0256 11.0117C17.1289 11.0179 18.8354 12.694 18.8291 14.7487C18.8291 16.791 17.1163 18.4485 15.0004 18.4423ZM15.0319 12.2036C13.5898 12.2036 12.4248 13.3272 12.4122 14.7177C12.4122 16.102 13.5772 17.238 15.0004 17.2442C16.4425 17.2442 17.62 16.1206 17.6263 14.7363C17.6263 13.3458 16.4614 12.2036 15.0319 12.2036Z" fill="white"/>
<path d="M20.0881 10.6997C20.0881 11.1531 19.7228 11.5258 19.2757 11.5196C18.8349 11.5196 18.476 11.1407 18.4823 10.6873C18.4823 10.24 18.8475 9.87354 19.2883 9.87354C19.7291 9.87354 20.0881 10.2462 20.0881 10.6997Z" fill="white"/>
</svg>
