<svg width="30" height="30" viewBox="0 0 30 30" fill="none" xmlns="http://www.w3.org/2000/svg">
<path d="M15 30C23.2843 30 30 23.2843 30 15C30 6.71573 23.2843 0 15 0C6.71573 0 0 6.71573 0 15C0 23.2843 6.71573 30 15 30Z" fill="#6AA7E6"/>
<path d="M24.1094 8.32604C24.0483 8.79615 23.9588 9.26215 23.8416 9.72149L21.3272 21.6022C21.2917 21.8327 21.2156 22.055 21.1025 22.2589C21.0254 22.4127 20.8964 22.5344 20.7383 22.6024C20.5802 22.6703 20.4032 22.6803 20.2385 22.6305C20.0046 22.5728 19.7853 22.4668 19.5947 22.3194C18.3289 21.3776 17.0587 20.4487 15.7972 19.5026C15.7723 19.4744 15.7412 19.4523 15.7064 19.438C15.6716 19.4237 15.634 19.4176 15.5965 19.4201C15.5589 19.4226 15.5224 19.4337 15.4898 19.4525C15.4572 19.4713 15.4294 19.4973 15.4084 19.5285C14.7863 20.1506 14.1512 20.7555 13.5291 21.3689C13.4206 21.4896 13.2871 21.5849 13.1378 21.6484C12.9885 21.7118 12.8271 21.7418 12.665 21.7362C12.5596 21.7446 12.4548 21.7141 12.3704 21.6504C12.286 21.5867 12.2279 21.4942 12.2071 21.3905C11.8183 20.1722 11.4208 18.9582 11.0233 17.7399C10.8894 17.3079 10.7511 16.9147 10.6259 16.5C10.6102 16.4331 10.576 16.372 10.527 16.3239C10.4781 16.2757 10.4165 16.2424 10.3494 16.2278C9.11376 15.8476 7.87816 15.4588 6.63825 15.07C6.47339 15.0262 6.31505 14.9608 6.16734 14.8756C6.08446 14.851 6.01085 14.8022 5.95601 14.7354C5.90117 14.6686 5.86763 14.5869 5.85972 14.5008C5.85181 14.4148 5.8699 14.3283 5.91165 14.2526C5.95339 14.177 6.01687 14.1155 6.09389 14.0763C6.30815 13.8965 6.55439 13.7588 6.8197 13.6702L11.8787 11.7175L22.8047 7.50519L22.8911 7.47063C23.5824 7.19413 24.1051 7.55271 24.1094 8.32604ZM12.6823 20.5524C12.7514 20.5179 12.7428 20.4747 12.7471 20.4401C12.8292 19.5501 12.9156 18.6645 12.989 17.7745C12.9924 17.6714 13.0172 17.5702 13.0618 17.4772C13.1065 17.3842 13.1699 17.3015 13.2483 17.2344C15.6187 15.106 17.9876 12.9703 20.3551 10.8275C20.5063 10.6936 20.6575 10.5596 20.7871 10.4214C20.8476 10.3609 20.9254 10.2961 20.8779 10.201C20.8303 10.106 20.7267 10.106 20.6316 10.119C20.4557 10.1491 20.2888 10.2185 20.1434 10.322C17.2344 12.1682 14.3183 14.0101 11.3949 15.8476C11.3604 15.8623 11.3294 15.8841 11.3038 15.9115C11.2783 15.9389 11.2588 15.9714 11.2466 16.0068C11.2343 16.0422 11.2297 16.0798 11.2329 16.1171C11.2361 16.1545 11.2472 16.1907 11.2653 16.2235C11.6282 17.3079 11.9781 18.3836 12.3324 19.4767C12.462 19.8309 12.5786 20.1895 12.6823 20.5524Z" fill="white"/>
</svg>
