<svg width="35" height="33" viewBox="0 0 35 33" fill="none" xmlns="http://www.w3.org/2000/svg">
<path d="M15.7778 29.6873L17.5009 31.4105L32.1246 16.7868C35.9585 12.9529 35.9585 6.71106 32.1246 2.87721C28.2883 -0.959071 22.0513 -0.959071 18.215 2.87721L2.3727 18.7196C-0.790898 21.8832 -0.790898 27.0283 2.3727 30.1919C3.95206 31.7712 6.03106 32.5658 8.11006 32.5658C10.1891 32.5658 12.2656 31.7736 13.8474 30.1919L28.4711 15.5682C29.6776 14.3617 30.3405 12.758 30.3405 11.0519C30.3405 9.34577 29.6776 7.74203 28.4687 6.53314C26.0558 4.12023 21.8466 4.12023 19.4337 6.53314L6.02862 19.9382L7.75178 21.6614L21.1568 8.2563C22.646 6.76712 25.2564 6.76712 26.7455 8.2563C27.4913 9.00211 27.9032 9.99408 27.9032 11.0519C27.9032 12.1096 27.4913 13.1016 26.7455 13.845L12.1218 28.4687C9.90878 30.6817 6.30891 30.6817 4.09586 28.4687C1.8828 26.2556 1.8828 22.6558 4.09586 20.4427L19.9382 4.60037C22.8239 1.71463 27.5157 1.71463 30.4015 4.60037C33.2872 7.48612 33.2872 12.1779 30.4015 15.0636L15.7778 29.6873Z" fill="#6AA7E6"/>
</svg>
