<svg width="120" height="77" viewBox="0 0 120 77" fill="none" xmlns="http://www.w3.org/2000/svg">
<path d="M0 20C0 8.9543 8.95431 0 20 0H120V37C120 59.0914 102.091 77 80 77H0V20Z" fill="#6AA7E6"/>
<path d="M65.824 57H58.576V37.176C58.576 36.632 58.576 35.96 58.576 35.16C58.608 34.36 58.64 33.528 58.672 32.664C58.704 31.8 58.736 31.032 58.768 30.36C58.608 30.552 58.256 30.904 57.712 31.416C57.2 31.896 56.72 32.328 56.272 32.712L52.336 35.88L48.832 31.512L59.872 22.728H65.824V57Z" fill="white"/>
</svg>
