<svg width="120" height="77" viewBox="0 0 120 77" fill="none" xmlns="http://www.w3.org/2000/svg">
<path d="M0 20C0 8.9543 8.95431 0 20 0H120V37C120 59.0914 102.091 77 80 77H0V20Z" fill="#6AA7E6"/>
<path d="M71.872 57H47.92V51.96L56.512 43.272C58.24 41.48 59.632 39.992 60.688 38.808C61.744 37.592 62.512 36.504 62.992 35.544C63.472 34.552 63.712 33.496 63.712 32.376C63.712 31 63.328 29.976 62.56 29.304C61.824 28.632 60.816 28.296 59.536 28.296C58.224 28.296 56.944 28.6 55.696 29.208C54.448 29.816 53.136 30.68 51.76 31.8L47.824 27.144C48.816 26.28 49.856 25.48 50.944 24.744C52.064 24.008 53.344 23.416 54.784 22.968C56.256 22.488 58.016 22.248 60.064 22.248C62.304 22.248 64.224 22.664 65.824 23.496C67.456 24.296 68.704 25.4 69.568 26.808C70.464 28.184 70.912 29.752 70.912 31.512C70.912 32.952 70.688 34.28 70.24 35.496C69.824 36.712 69.2 37.896 68.368 39.048C67.568 40.168 66.576 41.336 65.392 42.552C64.208 43.736 62.864 45.032 61.36 46.44L56.944 50.568V50.904H71.872V57Z" fill="white"/>
</svg>
