<svg width="120" height="77" viewBox="0 0 120 77" fill="none" xmlns="http://www.w3.org/2000/svg">
<path d="M0 20C0 8.9543 8.95431 0 20 0H120V37C120 59.0914 102.091 77 80 77H0V20Z" fill="#6AA7E6"/>
<path d="M70.528 30.408C70.528 31.976 70.192 33.336 69.52 34.488C68.88 35.64 68 36.584 66.88 37.32C65.792 38.056 64.544 38.6 63.136 38.952V39.096C65.888 39.416 67.968 40.248 69.376 41.592C70.816 42.936 71.536 44.744 71.536 47.016C71.536 49 71.04 50.792 70.048 52.392C69.088 53.96 67.584 55.208 65.536 56.136C63.52 57.032 60.912 57.48 57.712 57.48C55.824 57.48 54.064 57.32 52.432 57C50.8 56.68 49.264 56.216 47.824 55.608V49.464C49.296 50.2 50.832 50.76 52.432 51.144C54.064 51.528 55.568 51.72 56.944 51.72C59.536 51.72 61.344 51.272 62.368 50.376C63.424 49.48 63.952 48.216 63.952 46.584C63.952 45.624 63.712 44.824 63.232 44.184C62.752 43.512 61.904 43.016 60.688 42.696C59.504 42.344 57.84 42.168 55.696 42.168H53.104V36.6H55.744C57.856 36.6 59.456 36.408 60.544 36.024C61.664 35.608 62.416 35.064 62.8 34.392C63.216 33.688 63.424 32.888 63.424 31.992C63.424 30.776 63.04 29.832 62.272 29.16C61.536 28.456 60.288 28.104 58.528 28.104C57.44 28.104 56.448 28.248 55.552 28.536C54.656 28.792 53.84 29.112 53.104 29.496C52.4 29.88 51.776 30.248 51.232 30.6L47.872 25.608C48.768 24.968 49.76 24.392 50.848 23.88C51.968 23.368 53.2 22.968 54.544 22.68C55.888 22.392 57.392 22.248 59.056 22.248C62.576 22.248 65.36 22.968 67.408 24.408C69.488 25.816 70.528 27.816 70.528 30.408Z" fill="white"/>
</svg>
