<svg width="120" height="77" viewBox="0 0 120 77" fill="none" xmlns="http://www.w3.org/2000/svg">
<path d="M0 20C0 8.9543 8.95431 0 20 0H120V37C120 59.0914 102.091 77 80 77H0V20Z" fill="#6AA7E6"/>
<path d="M72.64 49.896H68.512V57H61.456V49.896H46.816V44.856L61.84 22.728H68.512V44.28H72.64V49.896ZM61.456 38.472C61.456 37.928 61.456 37.288 61.456 36.552C61.488 35.784 61.52 35.032 61.552 34.296C61.584 33.528 61.616 32.856 61.648 32.28C61.68 31.672 61.712 31.256 61.744 31.032H61.552C61.264 31.672 60.96 32.296 60.64 32.904C60.32 33.512 59.936 34.136 59.488 34.776L53.2 44.28H61.456V38.472Z" fill="white"/>
</svg>
