<svg width="120" height="77" viewBox="0 0 120 77" fill="none" xmlns="http://www.w3.org/2000/svg">
<path d="M0 20C0 8.9543 8.95431 0 20 0H120V37C120 59.0914 102.091 77 80 77H0V20Z" fill="#6AA7E6"/>
<path d="M60.4 35.112C62.48 35.112 64.336 35.512 65.968 36.312C67.6 37.112 68.88 38.28 69.808 39.816C70.768 41.352 71.248 43.256 71.248 45.528C71.248 47.992 70.736 50.12 69.712 51.912C68.688 53.704 67.152 55.08 65.104 56.04C63.088 57 60.576 57.48 57.568 57.48C55.776 57.48 54.08 57.32 52.48 57C50.912 56.68 49.536 56.216 48.352 55.608V49.368C49.536 49.976 50.96 50.504 52.624 50.952C54.288 51.368 55.856 51.576 57.328 51.576C58.768 51.576 59.968 51.384 60.928 51C61.92 50.616 62.672 50.024 63.184 49.224C63.696 48.424 63.952 47.4 63.952 46.152C63.952 44.456 63.392 43.176 62.272 42.312C61.152 41.416 59.424 40.968 57.088 40.968C56.192 40.968 55.264 41.064 54.304 41.256C53.344 41.416 52.544 41.576 51.904 41.736L49.024 40.2L50.32 22.728H68.896V28.872H56.656L56.032 35.592C56.576 35.496 57.152 35.4 57.76 35.304C58.4 35.176 59.28 35.112 60.4 35.112Z" fill="white"/>
</svg>
